<?xml version="1.0" encoding="iso-8859-1"?>
<!-- Generator: Adobe Illustrator 19.0.0, SVG Export Plug-In . SVG Version: 6.00 Build 0)  -->
<svg version="1.1" id="Capa_1" xmlns="http://www.w3.org/2000/svg" xmlns:xlink="http://www.w3.org/1999/xlink" x="0px" y="0px"
	 viewBox="0 0 512 512" style="enable-background:new 0 0 512 512;" xml:space="preserve">
<g>
	<g>
		<path d="M256,122c-74.439,0-135,60.561-135,135s60.561,135,135,135s135-60.561,135-135S330.439,122,256,122z M256,362.2
			c-57.897,0-105.2-49.236-105.2-107.133C150.8,197.17,198.103,151.8,256,151.8c57.897,0,105.2,47.303,105.2,105.2
			C361.2,314.897,313.897,362.2,256,362.2z"/>
	</g>
</g>
<g>
	<g>
		<path d="M256,182c-41.355,0-75,33.645-75,75s33.645,75,75,75s75-33.645,75-75C331,215.645,297.355,182,256,182z M256,302.2
			c-24.813,0-45.2-20.387-45.2-45.2c0-24.813,20.387-45.2,45.2-45.2s45.2,20.387,45.2,45.2S280.813,302.2,256,302.2z"/>
	</g>
</g>
<g>
	<g>
		<path d="M501.682,212.749l-61.659-20.255c-2.387-6.791-5.167-13.483-8.317-20.016l28.63-57.263
			c2.888-5.775,1.756-12.749-2.81-17.315L415.1,55.475c-4.565-4.566-11.543-5.697-17.314-2.81l-57.263,28.631
			c-6.522-3.146-13.201-5.922-19.978-8.304L300.271,10.38C298.267,4.191,292.504,0,286,0h-60c-6.504,0-12.267,4.191-14.271,10.379
			l-20.274,62.612c-6.776,2.382-13.455,5.159-19.978,8.304l-57.263-28.631c-5.774-2.886-12.75-1.756-17.314,2.81L54.475,97.9
			c-4.565,4.565-5.697,11.54-2.81,17.315l28.63,57.263c-3.15,6.533-5.931,13.225-8.317,20.016l-61.659,20.255
			C4.162,214.772,0,220.52,0,227v60c0,6.48,4.162,12.228,10.318,14.251l61.659,20.255c2.387,6.792,5.168,13.484,8.317,20.015
			l-28.63,57.262c-2.888,5.775-1.756,12.749,2.81,17.314L96.9,458.525c4.564,4.565,11.542,5.697,17.314,2.81l57.261-28.631
			c6.549,3.158,13.256,5.944,20.058,8.333l20.236,60.708C213.812,507.869,219.544,512,226,512h60c6.456,0,12.188-4.131,14.23-10.256
			l20.236-60.708c6.802-2.388,13.509-5.174,20.058-8.333l57.261,28.631c5.772,2.889,12.749,1.756,17.314-2.81l42.426-42.427
			c4.565-4.565,5.697-11.54,2.81-17.314l-28.63-57.262c3.149-6.531,5.931-13.223,8.317-20.015l61.659-20.255
			C507.838,299.228,512,293.48,512,287v-60C512,220.52,507.838,214.772,501.682,212.749z M482,276.139l-58.542,19.231
			c-4.635,1.522-8.239,5.204-9.664,9.87c-3.054,10.001-7.132,19.819-12.12,29.182c-2.284,4.288-2.351,9.416-0.179,13.761
			l27.173,54.346l-27.137,27.138l-54.344-27.173c-4.342-2.172-9.471-2.107-13.759,0.176c-9.378,4.995-19.198,9.073-29.187,12.122
			c-4.645,1.418-8.315,4.996-9.852,9.603L275.188,482h-38.377l-19.202-57.604c-1.536-4.607-5.207-8.185-9.852-9.603
			c-9.988-3.049-19.809-7.127-29.187-12.122c-4.286-2.283-9.415-2.349-13.759-0.176l-54.344,27.173L83.33,402.53l27.173-54.346
			c2.172-4.345,2.105-9.473-0.179-13.761c-4.988-9.363-9.066-19.182-12.12-29.182c-1.425-4.666-5.029-8.348-9.664-9.87L30,276.139
			v-38.278l58.542-19.231c4.635-1.522,8.239-5.204,9.664-9.87c3.053-9.996,7.131-19.815,12.121-29.186
			c2.283-4.287,2.35-9.415,0.178-13.759l-27.173-54.346l27.137-27.136l54.346,27.172c4.345,2.172,9.473,2.106,13.759-0.177
			c9.375-4.993,19.193-9.071,29.185-12.121c4.688-1.431,8.382-5.062,9.892-9.726L236.91,30h38.18l19.261,59.482
			c1.51,4.663,5.203,8.294,9.892,9.726c9.991,3.05,19.81,7.128,29.185,12.121c4.288,2.283,9.414,2.349,13.759,0.177l54.346-27.172
			l27.137,27.136l-27.173,54.346c-2.172,4.344-2.105,9.472,0.178,13.759c4.99,9.371,9.068,19.19,12.121,29.186
			c1.425,4.666,5.029,8.348,9.664,9.87l58.54,19.23V276.139z"/>
	</g>
</g>
<g>
</g>
<g>
</g>
<g>
</g>
<g>
</g>
<g>
</g>
<g>
</g>
<g>
</g>
<g>
</g>
<g>
</g>
<g>
</g>
<g>
</g>
<g>
</g>
<g>
</g>
<g>
</g>
<g>
</g>
</svg>
