<?xml version="1.0"?>
<svg xmlns="http://www.w3.org/2000/svg" height="512px" viewBox="-21 -21 682.66687 682" width="512px"><g><div xmlns="" id="saka-gui-root" class="active-path"><div><div><style/></div></div></div><path d="m63.992188 640.273438h-42.660157c-5.890625 0-10.664062-4.773438-10.664062-10.667969v-562.832031c0-5.886719 4.773437-10.664063 10.664062-10.664063s10.667969 4.777344 10.667969 10.664063v552.167968h21.332031v-552.167968c0-5.886719 4.773438-10.664063 10.660157-10.664063 5.894531 0 10.667968 4.777344 10.667968 10.664063v562.832031c0 5.894531-4.773437 10.667969-10.667968 10.667969zm0 0" data-original="#000000" class="active-path" fill="#FFFFFF"/><path d="m42.664062 85.652344c-23.5625 0-42.664062-19.097656-42.664062-42.660156s19.101562-42.664063 42.664062-42.664063 42.660157 19.101563 42.660157 42.664063c0 11.3125-4.492188 22.164062-12.492188 30.167968-8.003906 7.996094-18.851562 12.492188-30.167969 12.492188zm0-63.992188c-11.78125 0-21.332031 9.550782-21.332031 21.332032s9.550781 21.332031 21.332031 21.332031 21.328126-9.550781 21.328126-21.332031c0-5.660157-2.246094-11.082032-6.242188-15.082032-4.003906-4.003906-9.429688-6.25-15.085938-6.25zm0 0" data-original="#000000" class="active-path" fill="#FFFFFF"/><path d="m629.277344 298.222656c-5.890625 0-10.664063-4.773437-10.664063-10.667968v-87.242188c0-5.894531 4.773438-10.667969 10.664063-10.667969s10.667968 4.773438 10.667968 10.667969v87.242188c0 5.894531-4.777343 10.667968-10.667968 10.667968zm0 0" data-original="#000000" class="active-path" fill="#FFFFFF"/><path d="m177.222656 554.273438c-39.53125.429687-78.875-5.460938-116.542968-17.457032-4.386719-1.4375-7.347657-5.523437-7.347657-10.136718v-426.628907c0-3.417969 1.640625-6.625 4.402344-8.628906 2.769531-2.007813 6.328125-2.566406 9.578125-1.5 91.574219 29.957031 181.796875 13.40625 277.304688-4.097656 88.527343-16.242188 180.171874-33.0625 271.339843-8.320313 14.046875 3.761719 23.863281 16.429688 23.988281 30.976563v43.300781c0 5.894531-4.777343 10.667969-10.667968 10.667969s-10.664063-4.773438-10.664063-10.667969v-43.300781c-.097656-4.921875-3.46875-9.179688-8.238281-10.402344-86.539062-23.464844-175.683594-7.09375-261.90625 8.714844-89.390625 16.382812-181.703125 33.253906-273.808594 7.65625v404.402343c89.164063 26.816407 177.050782 10.667969 270.035156-6.398437 85.003907-15.605469 172.882813-31.742187 260.464844-11.078125 3.320313.808594 6.828125.054688 9.515625-2.050781 2.511719-1.957031 3.964844-4.976563 3.9375-8.160157v-17.0625c0-5.894531 4.773438-10.667968 10.664063-10.667968s10.667968 4.773437 10.667968 10.667968v17.0625c.027344 9.707032-4.410156 18.886719-12.03125 24.898438-7.789062 6.167969-17.988281 8.410156-27.644531 6.066406-83.195312-19.625-168.871093-3.894531-251.710937 11.304688-56.367188 12.105468-113.710938 19.078125-171.335938 20.839844zm0 0" data-original="#000000" class="active-path" fill="#FFFFFF"/><path d="m629.277344 458.632812c-5.890625 0-10.664063-4.773437-10.664063-10.660156v-51.199218c0-5.890626 4.773438-10.667969 10.664063-10.667969s10.667968 4.777343 10.667968 10.667969v51.199218c0 5.886719-4.777343 10.660156-10.667968 10.660156zm0 0" data-original="#000000" class="active-path" fill="#FFFFFF"/><path d="m629.277344 375.011719c-5.890625 0-10.664063-4.773438-10.664063-10.660157v-12.054687c0-5.890625 4.773438-10.664063 10.664063-10.664063s10.667968 4.773438 10.667968 10.664063v12.054687c0 5.886719-4.777343 10.660157-10.667968 10.660157zm0 0" data-original="#000000" class="active-path" fill="#FFFFFF"/><path d="m313.859375 458.722656c-9.511719 1.03125-19.070313-1.5-26.824219-7.105468-4.378906-4.628907-5.347656-11.523438-2.398437-17.171876 3.464843-5.710937 4.367187-12.621093 2.488281-19.03125-.65625-.882812-3.105469-1.125-6.285156-.613281-14.570313 2.234375-29.640625 4.5625-38.707032-5.335937-8.320312-9.097656-6.015624-23.316406-3.574218-33.203125 2.03125-8.113281-.425782-11.28125-6.394532-18.941407-9.039062-11.734374-21.429687-27.78125-16.578124-66.433593 8.394531-66.332031 59.300781-117.9375 129.652343-131.507813 31.058594-7.414062 63.792969-1.390625 90.175781 16.578125 24.714844 18.84375 40.472657 47.125 43.480469 78.054688 4.386719 24.148437-1.4375 49.035156-16.097656 68.722656-6.347656 9.597656-8.84375 13.777344-6.859375 21.328125 3.957031 10.328125 3.210938 21.859375-2.035156 31.589844-7.199219 10.964844-20.832032 13.046875-35.273438 15.242187l-1.652344.246094c-7.113281 1.132813-8.800781 4.597656-9.367187 5.742187-2.054687 6-1.351563 12.601563 1.925781 18.035157 2.425782 4.25 2.648438 9.417969.59375 13.863281-3.402344 7.46875-13.128906 16.363281-59.375 25.671875v-.125c-12.125 2.65625-24.484375 4.125-36.894531 4.394531zm-7.359375-21.566406c12.875.265625 25.746094-.808594 38.394531-3.203125.503907-.144531 1.070313-.277344 1.601563-.394531 14.609375-2.148438 28.828125-6.421875 42.203125-12.679688-4.789063-10.582031-4.898438-22.6875-.304688-33.351562 4.953125-9.695313 14.441407-16.261719 25.265625-17.484375l1.71875-.253907c9.183594-1.394531 18.664063-2.847656 20.65625-5.863281.511719-.78125 1.945313-4.097656-.777344-14.484375-3.050781-13.664062.554688-27.957031 9.71875-38.539062 11.828126-15.402344 16.460938-35.152344 12.710938-54.214844-2.273438-25.078125-14.882812-48.085938-34.800781-63.503906-21.636719-14.425782-48.335938-19.121094-73.597657-12.921875-61.121093 11.792969-105.277343 56.230469-112.480468 113.203125-3.742188 29.917968 4.421875 40.53125 12.308594 50.734375 9.691406 9.71875 13.554687 23.8125 10.167968 37.109375-2.710937 10.945312-1.28125 13.863281-1.269531 13.863281 6.550781.410156 13.128906-.09375 19.539063-1.492187 9.855468-2.515626 20.277343.945312 26.660156 8.867187 6.320312 10.484375 7.171875 23.378906 2.285156 34.609375zm0 0" data-original="#000000" class="active-path" fill="#FFFFFF"/><path d="m292.421875 353.929688c-4.574219.046874-9.117187-.824219-13.355469-2.5625-6.722656-2.703126-11.933594-8.207032-14.269531-15.066407-5.332031-16 6.144531-35.328125 26.667969-45 10.691406-5.6875 23.289062-6.613281 34.691406-2.539062 6.523438 2.652343 11.578125 7.996093 13.867188 14.65625 5.332031 15.75-6.402344 35.683593-26.558594 45.382812-6.539063 3.261719-13.730469 5.019531-21.042969 5.128907zm20.265625-46.367188c-4.242188.113281-8.40625 1.152344-12.203125 3.050781-11.488281 5.429688-16.851563 14.859375-15.484375 18.972657.105469.34375.449219 1.324218 2.324219 2.136718 5.671875 1.5625 11.726562.789063 16.828125-2.136718 11.433594-5.492188 16.9375-15.289063 15.574218-19.351563-.097656-.34375-.375-1.132813-2.003906-1.828125-1.59375-.605469-3.289062-.890625-4.992187-.84375zm0 0" data-original="#000000" class="active-path" fill="#FFFFFF"/><path d="m389.234375 336.554688c-2.0625 0-4.121094-.132813-6.164063-.394532-10.707031-1.03125-20.425781-6.695312-26.601562-15.496094-4.46875-6.792968-5.679688-15.21875-3.304688-22.996093 7.222657-18.226563 26.324219-28.808594 45.605469-25.257813 10.734375 1.175782 20.421875 6.980469 26.523438 15.890625 4.464843 6.828125 5.664062 15.277344 3.277343 23.070313-6.390624 15.933594-22.191406 26.046875-39.335937 25.183594zm-15.632813-32.773438c-.578124 1.78125-.292968 3.722656.765626 5.265625 2.8125 3.511719 6.976562 5.679687 11.464843 5.960937 8.796875 1.886719 17.804688-2.109374 22.324219-9.886718.546875-1.808594.242188-3.777344-.84375-5.332032-2.773438-3.605468-6.949219-5.871093-11.488281-6.226562-8.835938-1.773438-17.816407 2.351562-22.222657 10.21875zm0 0" data-original="#000000" class="active-path" fill="#FFFFFF"/><path d="m343.671875 416.503906c-6.347656.070313-12.515625-2.09375-17.425781-6.109375-6.042969-5.132812-9.492188-12.699219-9.398438-20.625 0-12.875 10.023438-39.773437 28.488282-43.15625 6.578124-1.097656 13.300781.835938 18.289062 5.257813 8.640625 7.898437 13.710938 18.964844 14.046875 30.667968-.515625 16.433594-12.34375 30.316407-28.488281 33.441407-1.816406.339843-3.664063.515625-5.511719.523437zm5.238281-48.910156c-6.277344 5.738281-10.121094 13.664062-10.730468 22.148438-.09375 1.609374.53125 3.171874 1.707031 4.269531 1.566406 1.144531 3.566406 1.535156 5.449219 1.066406 6.023437-1.273437 10.496093-6.34375 11.003906-12.476563-.160156-5.851562-2.875-11.335937-7.429688-15.007812zm0 0" data-original="#000000" class="active-path" fill="#FFFFFF"/><path d="m209.050781 250.726562c-2.675781 0-5.253906-1.003906-7.222656-2.816406-3.988281-3.652344-7.976563-7.359375-11.96875-11.113281-2.484375-2.375-5.886719-3.546875-9.308594-3.195313-12.203125 1.355469-23.984375-4.941406-29.632812-15.839843-4.574219-8.5-4.535157-18.734375.097656-27.199219 3.960937-7.105469 10.679687-12.261719 18.570313-14.246094 1.605468-.417968 3.242187-.699218 4.894531-.847656.125-1.273438.328125-2.539062.617187-3.785156 1.988282-8.351563 7.453125-15.453125 15.015625-19.507813 8.292969-4.738281 18.355469-5.199219 27.039063-1.234375 11.125 4.976563 17.691406 16.628906 16.191406 28.722656-.320312 2.90625.789062 5.785157 2.988281 7.71875l5.863281 5.160157c4.121094 3.960937 4.394532 10.453125.621094 14.742187-3.773437 4.285156-10.25 4.84375-14.695312 1.257813l-5.953125-5.257813c-7.40625-6.546875-11.140625-16.300781-10.003907-26.121094.445313-2.953124-1.214843-5.824218-4-6.90625-2.421874-1.042968-5.1875-.878906-7.46875.433594-2.367187 1.136719-4.117187 3.261719-4.773437 5.804688-.484375 2-.097656 4.121094 1.0625 5.820312.269531.433594.585937.839844.953125 1.195313 4.269531 4.058593 4.445312 10.808593.390625 15.082031s-10.804687 4.453125-15.082031.394531c-.609375-.488281-1.253906-.9375-1.929688-1.34375-2.03125-.96875-4.339844-1.183593-6.515625-.609375-2.238281.542969-4.148437 1.996094-5.261719 4.007813-1.058593 2.101562-1.015624 4.589843.117188 6.644531 1.464844 3.230469 4.835938 5.144531 8.355469 4.753906 9.671875-1.023437 19.308593 2.214844 26.410156 8.871094 3.933594 3.699219 7.859375 7.335938 11.730469 10.953125 3.234375 2.976563 4.3125 7.628906 2.71875 11.71875-1.59375 4.097656-5.535156 6.792969-9.929688 6.796875zm0 0" data-original="#000000" class="active-path" fill="#FFFFFF"/><path d="m187.71875 200.535156c-2.796875.03125-5.492188-1.066406-7.464844-3.050781-2.03125-2.015625-3.179687-4.746094-3.203125-7.605469-.011719-2.6875 1.066407-5.265625 2.988281-7.144531l.636719-.636719c2.722657-2.710937 6.691407-3.746094 10.386719-2.714844 3.695312 1.023438 6.558594 3.964844 7.484375 7.6875.933594 3.726563-.210937 7.660157-2.992187 10.308594-2.105469 2.023438-4.914063 3.15625-7.835938 3.15625zm0 0" data-original="#000000" class="active-path" fill="#FFFFFF"/><path d="m485.515625 211.316406c-4.277344 0-8.140625-2.554687-9.816406-6.484375-1.671875-3.933593-.839844-8.488281 2.125-11.570312 3.984375-4.15625 7.972656-8.261719 11.964843-12.332031 6.886719-7.230469 16.710938-10.898438 26.644532-9.949219 3.429687.46875 6.800781-1.1875 8.535156-4.179688 1.089844-2.140625 1.050781-4.683593-.109375-6.78125-1.125-2.238281-3.164063-3.875-5.589844-4.492187-2.1875-.5625-4.511719-.175782-6.398437 1.0625-.09375.117187-.660156.511718-1.164063 1.070312l-.082031.082032c-4.160156 4.070312-10.820312 4.058593-14.960938-.039063-4.140624-4.089844-4.230468-10.75-.207031-14.953125l.066407-.066406c.351562-.382813.675781-.800782.957031-1.238282 1.324219-1.851562 1.753906-4.195312 1.171875-6.394531-.625-2.277343-2.292969-4.117187-4.492188-4.972656-2.203125-.855469-4.675781-.613281-6.671875.640625-3.316406 1.734375-5.300781 5.253906-5.066406 8.988281.992187 9.824219-2.410156 19.582031-9.289063 26.667969l-5.84375 6.3125c-2.578124 2.808594-6.460937 4.023438-10.179687 3.191406-3.714844-.828125-6.714844-3.578125-7.851563-7.214844-1.144531-3.632812-.257812-7.601562 2.320313-10.410156l5.949219-6.398437c2.558594-2.515625 3.910156-6.015625 3.710937-9.601563-1.230469-12.074218 4.746094-23.742187 15.261719-29.796875 7.753906-4.714843 17.273438-5.5 25.695312-2.121093 8.417969 3.378906 14.757813 10.523437 17.101563 19.292968.378906 1.464844.648437 2.960938.792969 4.46875 1.441406.136719 2.867187.378906 4.269531.726563 8.289063 2.0625 15.300781 7.5625 19.273437 15.121093 4.585938 8.539063 4.546876 18.816407-.105468 27.316407-5.839844 10.523437-17.488282 16.429687-29.425782 14.929687-3.429687-.214844-6.773437 1.140625-9.078124 3.683594-3.949219 4.007812-7.882813 8.066406-11.820313 12.15625-2.007813 2.097656-4.785156 3.285156-7.6875 3.285156zm0 0" data-original="#000000" class="active-path" fill="#FFFFFF"/><path d="m202.925781 510.9375c-4.296875.015625-8.539062-.957031-12.40625-2.835938-7.503906-3.625-13.054687-10.34375-15.207031-18.394531-.394531-1.476562-.675781-2.984375-.832031-4.503906-1.4375-.140625-2.863281-.378906-4.265625-.726563-8.320313-2.058593-15.339844-7.613281-19.261719-15.226562-4.667969-8.511719-4.605469-18.828125.171875-27.273438 5.9375-10.394531 17.484375-16.265624 29.382812-14.929687 3.425782.253906 6.785157-1.085937 9.09375-3.628906 6.339844-6.46875 12.675782-13.0625 19.019532-19.765625 2.621094-2.765625 6.515625-3.929688 10.226562-3.046875 3.707032.890625 6.660156 3.683593 7.75 7.335937 1.082032 3.652344.140625 7.609375-2.476562 10.378906-6.402344 6.765626-12.820313 13.4375-19.265625 20.007813-6.910157 7.195313-16.726563 10.855469-26.664063 9.929687-3.445312-.449218-6.824218 1.238282-8.535156 4.261719-1.121094 2.050781-1.121094 4.539063 0 6.582031 1.085938 2.320313 3.140625 4.035157 5.613281 4.683594 2.738281.582032 5.578125-.214844 7.613281-2.132812l.074219-.066406c4.164063-4.070313 10.820313-4.050782 14.960938.039062 4.140625 4.097656 4.230469 10.753906.210937 14.960938l-.074218.074218c-.484376.511719-.929688 1.058594-1.332032 1.628906-1.066406 1.792969-1.355468 3.9375-.800781 5.941407.585937 2.117187 2.078125 3.863281 4.070313 4.78125 2.292968.988281 4.921874.800781 7.050781-.503907 3.335937-1.722656 5.320312-5.265624 5.042969-9.011718-.941407-9.832032 2.480468-19.582032 9.363281-26.664063 7.257812-7.820312 14.511719-15.738281 21.773437-23.75 2.527344-2.941406 6.449219-4.277343 10.246094-3.496093 3.792969.785156 6.871094 3.5625 8.023438 7.265624 1.15625 3.699219.214843 7.738282-2.460938 10.539063-7.320312 8.085937-14.640625 16.078125-21.953125 23.96875-2.5625 2.523437-3.945313 6.003906-3.808594 9.597656 1.25 12.097657-4.734375 23.800781-15.285156 29.867188-4.554687 2.707031-9.761719 4.128906-15.058594 4.113281zm0 0" data-original="#000000" class="active-path" fill="#FFFFFF"/><path d="m187.71875 482.539062c-2.640625 0-5.179688-1.035156-7.0625-2.890624l-.519531-.511719c-2.863281-2.628907-4.074219-6.597657-3.160157-10.371094.914063-3.769531 3.804688-6.75 7.542969-7.777344 3.746094-1.027343 7.75.0625 10.457031 2.839844 2.164063 2.121094 3.386719 5.015625 3.386719 8.042969.03125 2.71875-1.007812 5.339844-2.890625 7.292968-2.023437 2.128907-4.820312 3.34375-7.753906 3.375zm0 0" data-original="#000000" class="active-path" fill="#FFFFFF"/><path d="m497.4375 470.589844c-4.316406.019531-8.589844-.921875-12.5-2.761719-11.101562-5.070313-17.628906-16.757813-16.125-28.871094.285156-2.96875-.875-5.886719-3.125-7.839843-7.765625-6.976563-15.53125-13.816407-23.292969-20.53125-2.882812-2.496094-4.21875-6.332032-3.503906-10.078126.71875-3.738281 3.378906-6.8125 6.976563-8.0625 3.601562-1.25 7.59375-.488281 10.472656 2.003907 7.878906 6.800781 15.746094 13.730469 23.617187 20.777343 7.386719 6.589844 11.128907 16.34375 10.039063 26.183594-.453125 3.027344 1.238281 5.96875 4.082031 7.101563 2.480469 1.082031 5.316406.953125 7.6875-.339844 2.195313-1.097656 3.808594-3.089844 4.429687-5.460937.519532-2.097657.128907-4.3125-1.070312-6.109376 0 0-.414062-.535156-.910156-1.015624l-.066406-.074219c-4.054688-4.121094-4.089844-10.722657-.078126-14.886719 4.019532-4.160156 10.617188-4.363281 14.882813-.460938l.074219.074219c.378906.328125.78125.625 1.207031.894531 2.15625 1.421876 4.8125 1.882813 7.328125 1.269532 2.082031-.472656 3.871094-1.828125 4.890625-3.710938 1.140625-2.085937 1.113281-4.613281-.074219-6.675781-1.523437-3.300781-4.90625-5.332031-8.535156-5.121094-9.679688.914063-19.285156-2.449219-26.273438-9.210937-8.332031-7.980469-16.65625-15.761719-24.984374-23.339844-3-2.511719-4.375-6.46875-3.59375-10.304688.78125-3.832031 3.601562-6.929687 7.34375-8.070312 3.742187-1.140625 7.8125-.136719 10.597656 2.609375 8.46875 7.699219 16.929687 15.601563 25.382812 23.691406 2.527344 2.414063 5.964844 3.652344 9.449219 3.390625 12.21875-1.101562 23.875 5.339844 29.449219 16.265625 4.691406 8.558594 4.601562 18.9375-.242188 27.410157-3.917968 6.941406-10.546875 11.9375-18.292968 13.792968-1.652344.402344-3.335938.667969-5.035157.789063-.136719 1.300781-.367187 2.589843-.683593 3.859375-2.042969 8.230468-7.5 15.195312-15.003907 19.148437-4.460937 2.40625-9.449219 3.664063-14.519531 3.664063zm0 0" data-original="#000000" class="active-path" fill="#FFFFFF"/><path d="m514.089844 441.011719c-2.792969.046875-5.480469-1.035157-7.46875-2.996094-2.054688-2.015625-3.234375-4.769531-3.261719-7.65625 0-2.6875 1.078125-5.265625 2.996094-7.15625l.535156-.53125c2.675781-2.773437 6.644531-3.886719 10.367187-2.910156 3.730469.976562 6.644532 3.890625 7.621094 7.617187.976563 3.726563-.136718 7.691406-2.910156 10.375-2.09375 2.082032-4.925781 3.253906-7.878906 3.257813zm0 0" data-original="#000000" class="active-path" fill="#FFFFFF"/><path d="m629.277344 210.976562c-2.667969 0-5.242188-1.003906-7.207032-2.804687l-21.464843-19.671875c-4.964844-4.542969-7.488281-11.167969-6.816407-17.867188.679688-6.699218 4.480469-12.691406 10.253907-16.152343l19.738281-11.839844c5.054688-3.03125 11.605469-1.394531 14.644531 3.652344 3.03125 5.054687 1.394531 11.605469-3.652343 14.636719l-19.753907 11.839843 21.46875 19.683594c3.242188 2.972656 4.324219 7.628906 2.726563 11.726563-1.589844 4.101562-5.539063 6.796874-9.9375 6.796874zm0 0" data-original="#000000" class="active-path" fill="#FFFFFF"/><path d="m629.277344 362.964844c-2.265625-.007813-4.472656-.730469-6.304688-2.070313l-38.992187-28.617187c-6.039063-4.433594-9.308594-11.710938-8.617188-19.171875.699219-7.460938 5.253907-14.007813 12.007813-17.25l37.328125-17.910157c5.242187-2.199218 11.285156.089844 13.75 5.207032 2.464843 5.121094.480469 11.277344-4.511719 13.992187l-37.328125 17.898438 38.992187 28.625c3.746094 2.726562 5.308594 7.554687 3.867188 11.953125-1.445312 4.398437-5.558594 7.367187-10.191406 7.34375zm0 0" data-original="#000000" class="active-path" fill="#FFFFFF"/><path d="m629.277344 407.4375c-2.671875 0-5.25-1-7.21875-2.8125l-10.828125-9.976562c-4.945313-4.546876-7.457031-11.164063-6.777344-17.851563.679687-6.691406 4.472656-12.667969 10.234375-16.128906l9.09375-5.46875c5.054688-3.035157 11.605469-1.398438 14.644531 3.652343 3.03125 5.050782 1.394531 11.605469-3.652343 14.636719l-9.109376 5.476563 10.832032 9.957031c3.238281 2.976563 4.316406 7.632813 2.71875 11.730469-1.59375 4.089844-5.539063 6.785156-9.9375 6.785156zm0 0" data-original="#000000" class="active-path" fill="#FFFFFF"/><path d="m629.277344 484.765625c-2.117188 0-4.1875-.632813-5.9375-1.8125-2.539063-1.707031-4.996094-3.402344-7.300782-5.015625-6.105468-4.285156-9.535156-11.460938-9.027343-18.90625.511719-7.453125 4.878906-14.097656 11.511719-17.515625l5.878906-3.027344c5.238281-2.699219 11.667968-.636719 14.371094 4.59375 2.695312 5.242188.636718 11.671875-4.601563 14.371094l-5.878906 3.027344c2.136719 1.511719 4.527343 3.195312 6.949219 4.769531 3.894531 2.617188 5.621093 7.472656 4.246093 11.964844-1.371093 4.492187-5.515625 7.554687-10.210937 7.550781zm0 0" data-original="#000000" class="active-path" fill="#FFFFFF"/></g> </svg>
